<?xml version="1.0" encoding="UTF-8" standalone="no"?>
<!DOCTYPE svg PUBLIC "-//W3C//DTD SVG 1.1//EN"
 "http://www.w3.org/Graphics/SVG/1.1/DTD/svg11.dtd">
<!-- Generated by graphviz version 8.1.0 (20230707.0739)
 -->
<!-- Title: G Pages: 1 -->
<svg width="744pt" height="274pt"
 viewBox="0.00 0.00 743.50 274.00" xmlns="http://www.w3.org/2000/svg" xmlns:xlink="http://www.w3.org/1999/xlink">
<g id="graph0" class="graph" transform="scale(1 1) rotate(0) translate(4 270)">
<title>G</title>
<polygon fill="white" stroke="none" points="-4,4 -4,-270 739.5,-270 739.5,4 -4,4"/>
<g id="clust1" class="cluster">
<title>cluster_0</title>
<polygon fill="none" stroke="black" points="76,-152 76,-258 547.5,-258 547.5,-152 76,-152"/>
</g>
<g id="clust2" class="cluster">
<title>cluster_2</title>
<polygon fill="none" stroke="black" points="8,-8 8,-144 214,-144 214,-8 8,-8"/>
</g>
<!-- scalac -->
<g id="node1" class="node">
<title>scalac</title>
<polygon fill="none" stroke="black" points="138,-250 84,-250 84,-214 138,-214 138,-250"/>
<text text-anchor="middle" x="111" y="-227.32" font-family="Georgia" font-size="14.00">scalac</text>
</g>
<!-- compiler_bridge -->
<g id="node2" class="node">
<title>compiler_bridge</title>
<polygon fill="none" stroke="black" points="356.5,-196 243,-196 243,-160 356.5,-160 356.5,-196"/>
<text text-anchor="middle" x="299.75" y="-173.32" font-family="Georgia" font-size="14.00">compiler bridge</text>
</g>
<!-- scalac&#45;&gt;compiler_bridge -->
<g id="edge1" class="edge">
<title>scalac&#45;&gt;compiler_bridge</title>
<path fill="none" stroke="black" d="M148.65,-222.77C168.13,-217.74 192.44,-211.28 214,-205 219.98,-203.26 226.19,-201.39 232.39,-199.49"/>
<polygon fill="black" stroke="black" points="147.91,-219.6 139.09,-225.47 149.65,-226.38 147.91,-219.6"/>
<polygon fill="black" stroke="black" points="233.28,-202.56 241.8,-196.26 231.21,-195.88 233.28,-202.56"/>
</g>
<!-- zinc -->
<g id="node4" class="node">
<title>zinc</title>
<polygon fill="none" stroke="black" points="539.5,-196 485.5,-196 485.5,-160 539.5,-160 539.5,-196"/>
<text text-anchor="middle" x="512.5" y="-173.32" font-family="Georgia" font-size="14.00">Zinc</text>
</g>
<!-- compiler_bridge&#45;&gt;zinc -->
<g id="edge3" class="edge">
<title>compiler_bridge&#45;&gt;zinc</title>
<path fill="none" stroke="black" d="M367.94,-178C403.26,-178 445.2,-178 474.6,-178"/>
<polygon fill="black" stroke="black" points="367.95,-174.5 357.95,-178 367.95,-181.5 367.95,-174.5"/>
<polygon fill="black" stroke="black" points="474.21,-181.5 484.21,-178 474.21,-174.5 474.21,-181.5"/>
<text text-anchor="middle" x="421" y="-181.95" font-family="Georgia" font-size="14.00">xsbti.Problem</text>
</g>
<!-- dotc -->
<g id="node3" class="node">
<title>dotc</title>
<polygon fill="none" stroke="black" points="138,-196 84,-196 84,-160 138,-160 138,-196"/>
<text text-anchor="middle" x="111" y="-173.32" font-family="Georgia" font-size="14.00">dotc</text>
</g>
<!-- dotc&#45;&gt;compiler_bridge -->
<g id="edge2" class="edge">
<title>dotc&#45;&gt;compiler_bridge</title>
<path fill="none" stroke="black" d="M149.16,-178C172.72,-178 203.9,-178 231.69,-178"/>
<polygon fill="black" stroke="black" points="149.36,-174.5 139.36,-178 149.36,-181.5 149.36,-174.5"/>
<polygon fill="black" stroke="black" points="231.55,-181.5 241.55,-178 231.55,-174.5 231.55,-181.5"/>
</g>
<!-- sbt_server -->
<g id="node7" class="node">
<title>sbt_server</title>
<polygon fill="none" stroke="black" points="735.5,-116 659.5,-116 659.5,-80 735.5,-80 735.5,-116"/>
<text text-anchor="middle" x="697.5" y="-93.33" font-family="Georgia" font-size="14.00">sbt server</text>
</g>
<!-- zinc&#45;&gt;sbt_server -->
<g id="edge5" class="edge">
<title>zinc&#45;&gt;sbt_server</title>
<path fill="none" stroke="black" d="M549.47,-162.27C578.07,-149.77 618.31,-132.18 649.46,-118.56"/>
<polygon fill="black" stroke="black" points="548.48,-159.33 540.72,-166.54 551.28,-165.74 548.48,-159.33"/>
<polygon fill="black" stroke="black" points="650.47,-121.5 658.23,-114.29 647.67,-115.09 650.47,-121.5"/>
<text text-anchor="middle" x="599.5" y="-161.95" font-family="Georgia" font-size="14.00">xsbti.Problem</text>
</g>
<!-- bsp_client -->
<g id="node5" class="node">
<title>bsp_client</title>
<polygon fill="none" stroke="black" points="186.12,-58.25 35.88,-58.25 35.88,-15.75 186.12,-15.75 186.12,-58.25"/>
<text text-anchor="middle" x="111" y="-40.95" font-family="Georgia" font-size="14.00">BSP client/LSP server</text>
<text text-anchor="middle" x="111" y="-23.7" font-family="Georgia" font-size="14.00">(Metals, IntelliJ)</text>
</g>
<!-- lsp_client -->
<g id="node6" class="node">
<title>lsp_client</title>
<polygon fill="none" stroke="black" points="206,-136.25 16,-136.25 16,-93.75 206,-93.75 206,-136.25"/>
<text text-anchor="middle" x="111" y="-118.95" font-family="Georgia" font-size="14.00">LSP client</text>
<text text-anchor="middle" x="111" y="-101.7" font-family="Georgia" font-size="14.00">(VS Code, IntelliJ, Helix etc)</text>
</g>
<!-- bsp_client&#45;&gt;lsp_client -->
<g id="edge4" class="edge">
<title>bsp_client&#45;&gt;lsp_client</title>
<path fill="none" stroke="black" d="M111,-69.5C111,-73.86 111,-78.22 111,-82.58"/>
<polygon fill="black" stroke="black" points="114.5,-69.63 111,-59.63 107.5,-69.63 114.5,-69.63"/>
<polygon fill="black" stroke="black" points="107.5,-82.42 111,-92.42 114.5,-82.42 107.5,-82.42"/>
</g>
<!-- sbt_server&#45;&gt;bsp_client -->
<g id="edge6" class="edge">
<title>sbt_server&#45;&gt;bsp_client</title>
<path fill="none" stroke="black" d="M648.37,-92.98C549.37,-82.64 321.79,-58.89 197.26,-45.9"/>
<polygon fill="black" stroke="black" points="647.92,-96.55 658.23,-94.11 648.64,-89.59 647.92,-96.55"/>
<polygon fill="black" stroke="black" points="197.93,-42.34 187.62,-44.79 197.2,-49.31 197.93,-42.34"/>
<text text-anchor="middle" x="421" y="-76.95" font-family="Georgia" font-size="14.00">BSP Diagnostic</text>
</g>
</g>
</svg>
